<svg width="163" height="108" viewBox="0 0 163 108" fill="none" xmlns="http://www.w3.org/2000/svg">
<path d="M55.4828 51.917L59.0885 39.4338C55.7599 42.913 53.2467 47.1768 51.8597 51.917H55.4828ZM51.2508 66.5628L51.949 64.1475L50.8333 63.8844C50.9353 64.7896 51.071 65.6843 51.2508 66.5628ZM64.6681 51.917H71.121L80.5104 30.0241C72.3515 30.1783 64.965 33.5462 59.579 38.9227L64.6681 51.917ZM91.2266 89.1846C102.024 85.3682 110.041 75.6398 111.359 63.9134L102.111 66.0865L91.2266 89.1846ZM71.7449 68.8089L66.9528 78.6578L62.1328 66.5454L59.4051 65.9034L56.0731 77.7943C60.8281 84.638 68.3109 89.4443 76.936 90.6287L75.5663 69.7071L71.7449 68.8089ZM82.6235 60.0935L87.9526 54.7622L86.293 30.468C85.8952 30.3985 84.6739 30.1887 83.4608 30.0971C82.1016 29.9975 80.7574 30.0183 80.6855 30.0195L82.6235 60.0935ZM88.9395 69.1821L83.295 70.5079L84.5974 90.7122C86.5701 90.485 88.4884 90.0724 90.3301 89.486L88.9395 69.1821ZM109.692 49.9943L108.787 51.917H110.322C110.13 51.268 109.925 50.6247 109.692 49.9943ZM95.302 51.917L94.0657 32.9192C98.4194 34.9787 102.206 38.0418 105.136 41.8073L100.372 51.917H95.302Z" fill="#254AA5"/>
<path d="M102.575 65.0987L108.388 52.7627L157.272 52.4788H157.299L102.575 65.0987ZM122.225 63.6071L117.292 65.203L117.208 65.786C116.806 68.5454 116.082 71.269 115.055 73.8767L114.824 74.4631L118.43 77.9504C117.434 80.0655 116.258 82.0995 114.919 84.0141L110.104 82.6396L109.711 83.1333C107.97 85.3284 105.971 87.3253 103.771 89.0718L103.275 89.4635L104.651 94.2709C102.73 95.6095 100.693 96.7859 98.5796 97.7791L95.0946 94.1782L94.5066 94.4123C91.8913 95.4449 89.1612 96.1681 86.394 96.5715L85.7654 96.663L84.5442 101.536C83.3821 101.636 82.2061 101.686 81.0383 101.686C79.8727 101.686 78.6955 101.636 77.5335 101.536L76.3087 96.648L75.6825 96.5541C72.9385 96.1473 70.2223 95.4148 67.6117 94.3741L67.0226 94.14L63.4992 97.7791C61.3873 96.7859 59.3496 95.6107 57.4267 94.2709L58.8277 89.3755L58.3348 88.9826C56.8085 87.7634 55.3832 86.412 54.0645 84.9575L55.7381 78.9842C60.6914 85.7502 68.282 90.4545 76.9976 91.5902L77.1658 94.1585L83.3218 91.7803C98.5738 90.7117 110.821 78.8104 112.344 63.6824L122.335 61.3344C122.323 62.1549 122.29 62.8468 122.225 63.6071ZM52.1776 63.3533L5.13658 52.4788L55.2371 52.765L52.1776 63.3533ZM51.2498 66.5625C51.07 65.684 50.9344 64.7893 50.8335 63.8841L51.948 64.1472L51.2498 66.5625ZM46.4948 83.022C45.429 81.3995 44.471 79.7028 43.6464 77.9504L47.3472 74.3727L47.1164 73.7863C46.1028 71.2018 45.3861 68.52 44.9894 65.8149L44.9036 65.2331L39.8482 63.5886C39.7786 62.7622 39.7508 62.0553 39.7415 61.273L49.8488 63.6523C50.0135 65.2864 50.3058 66.8812 50.7117 68.4284L46.4948 83.022ZM71.12 51.9167H64.6682L59.578 38.9224C64.964 33.546 72.3505 30.1792 80.5106 30.0239L71.12 51.9167ZM72.151 67.9718L75.0597 61.9904L75.5027 68.7459L72.151 67.9718ZM65.0231 52.8218L70.7187 52.8543L67.7474 59.7814L65.0231 52.8218ZM59.636 65.0767L60.4258 62.2604L61.741 65.5646L59.636 65.0767ZM55.4818 51.9167H51.8598C53.2469 47.1765 55.759 42.9127 59.0886 39.4335L55.4818 51.9167ZM59.4041 65.903L62.1318 66.5451L66.9518 78.6574L71.7439 68.8085L75.5653 69.7079L76.935 90.6283C68.3099 89.4438 60.8283 84.6376 56.0721 77.794L59.4041 65.903ZM88.9385 69.1817L90.3303 89.4856C88.4886 90.072 86.5703 90.4846 84.5964 90.7118L83.294 70.5076L88.9385 69.1817ZM82.6225 60.0931L80.6845 30.0192C80.7564 30.0192 82.1006 29.9972 83.461 30.0969C84.6729 30.1884 85.8953 30.3982 86.292 30.4689L87.9516 54.7619L82.6225 60.0931ZM88.0374 56.0148L88.8759 68.258L83.2325 69.5619L82.7048 61.3518L88.0374 56.0148ZM100.371 51.9167H95.3021L94.0647 32.919C98.4184 34.9784 102.206 38.0416 105.135 41.807L100.371 51.9167ZM95.3613 52.838L99.9493 52.8114L97.0174 59.035C96.6324 59.866 96.2624 60.7306 95.9284 61.5476L95.3613 52.838ZM102.11 66.0873L111.358 63.9131C110.04 75.6395 102.023 85.3689 91.2256 89.1842L102.11 66.0873ZM47.1245 47.0873L47.3565 46.4985L43.6464 42.915C44.6403 40.8034 45.8163 38.7694 47.1582 36.8513L52.1092 38.2641L52.5035 37.7704C54.2223 35.6066 56.1881 33.6398 58.3464 31.9199L58.8393 31.5271L57.4267 26.5945C59.3496 25.2559 61.3873 24.0796 63.4992 23.0875L67.0597 26.7649L67.6477 26.5319C70.2397 25.5074 72.9373 24.7796 75.6674 24.3728L76.2914 24.2789L77.5335 19.3301C78.7153 19.2305 79.8901 19.1806 81.0383 19.1806C82.1864 19.1806 83.3636 19.2305 84.5442 19.3301L85.7805 24.2696L86.4091 24.3612C89.145 24.7599 91.853 25.4819 94.4555 26.5064L95.0447 26.7394L98.5785 23.0875C100.693 24.0807 102.73 25.2571 104.649 26.5945L103.253 31.4761L103.748 31.8678C105.256 33.0662 106.662 34.3897 107.963 35.8059L105.593 40.8358C102.509 36.9904 98.5402 33.8913 93.9951 31.8376L93.7365 27.8694L88.216 29.886C85.9278 29.3528 83.5457 29.0631 81.0939 29.0631C66.7059 29.0631 54.583 38.7172 50.8671 51.9167H45.6145C46.0089 50.2791 46.5041 48.6623 47.1245 47.0873V47.0873ZM109.692 49.9939C109.924 50.6244 110.129 51.2676 110.321 51.9167H108.787L109.692 49.9939ZM115.485 37.6997C116.587 39.3651 117.58 41.1082 118.43 42.915L114.784 46.4382L115.018 47.0258C115.652 48.6217 116.158 50.2593 116.561 51.9167H111.309C111.009 50.8562 110.656 49.8201 110.251 48.8083L115.485 37.6997ZM117.532 51.9167C117.109 50.1191 116.57 48.3668 115.898 46.6782L119.571 43.1294C118.553 40.8729 117.334 38.73 115.953 36.7065L125.603 16.2241L115.44 19.9386L108.396 34.8869C107.134 33.5402 105.785 32.2769 104.338 31.1284L105.743 26.2109C103.447 24.5547 100.978 23.1234 98.3628 21.9482L94.8035 25.6279C92.1801 24.593 89.4175 23.842 86.5436 23.4247L85.2992 18.4493C83.8994 18.3091 82.4752 18.2349 81.0383 18.2349C79.6013 18.2349 78.1794 18.3091 76.7785 18.4493L75.5271 23.4375C72.6659 23.8628 69.9127 24.6185 67.2997 25.6523L63.7126 21.9482C61.0997 23.1234 58.6305 24.5547 56.3319 26.2109L57.7549 31.1805C55.5374 32.9479 53.5264 34.9611 51.7613 37.1816L46.7731 35.7584C45.1135 38.0532 43.6801 40.5194 42.5064 43.1294L46.2443 46.7396C45.5855 48.4096 45.0579 50.1411 44.6415 51.9167H0L38.7905 61.0504C38.8021 62.1827 38.8439 63.1053 38.9633 64.2955L44.0523 65.9505C44.4699 68.7958 45.2144 71.5309 46.235 74.1316L42.5064 77.736C43.5293 80.0111 44.7598 82.1667 46.1538 84.2042L39.288 107.972L48.5626 104.586L53.7653 86.0226C55.004 87.345 56.3261 88.5897 57.7433 89.7208L56.3319 94.6557C58.6305 96.3119 61.0997 97.7432 63.7126 98.9184L67.2626 95.2526C69.8883 96.2991 72.6613 97.0629 75.5433 97.4894L76.7785 102.417C78.1794 102.559 79.6013 102.632 81.0383 102.632C82.4752 102.632 83.8994 102.559 85.2992 102.417L86.5297 97.5079C89.4245 97.0884 92.2137 96.3327 94.8545 95.292L98.3662 98.9184C100.978 97.7432 103.447 96.3119 105.746 94.6557L104.359 89.8124C106.616 88.0206 108.661 85.9786 110.452 83.7221L115.303 85.107C116.963 82.8134 118.394 80.346 119.571 77.736L115.937 74.2232C116.976 71.5877 117.725 68.8108 118.145 65.9216L123.111 64.3164C123.227 63.1447 123.273 62.2198 123.286 61.1107L162.408 51.9167H117.532" fill="#161615"/>
<path d="M88.2151 29.8836L93.7356 27.867L93.9942 31.8353C98.5393 33.8901 102.508 36.9892 105.592 40.8335L107.962 35.8048C106.661 34.3873 105.255 33.0638 103.747 31.8666L103.253 31.4737L104.648 26.5933C102.73 25.2547 100.692 24.0783 98.5776 23.0851L95.0449 26.737L94.4546 26.5052C91.8521 25.4795 89.1441 24.7575 86.4082 24.3588L85.7796 24.2672L84.5433 19.3289C83.3627 19.2292 82.1855 19.1782 81.0374 19.1782C79.8892 19.1782 78.7143 19.2292 77.5326 19.3289L76.2916 24.2765L75.6665 24.3716C72.9364 24.7772 70.2388 25.505 67.6468 26.5295L67.0588 26.7637L63.4983 23.0851C61.3864 24.0772 59.3487 25.2535 57.4258 26.5933L58.8384 31.5247L58.3455 31.9176C56.1883 33.6387 54.2214 35.6054 52.5026 37.768L52.1083 38.2618L47.1573 36.8501C45.8154 38.7671 44.6394 40.8022 43.6455 42.9127L47.3556 46.4974L47.1236 47.085C46.5032 48.66 46.0079 50.2779 45.6136 51.9156H50.8662C54.5821 38.7149 66.705 29.0619 81.093 29.0619C83.5448 29.0619 85.9269 29.3516 88.2151 29.8836ZM83.3209 91.7782L77.1649 94.1576L76.9967 91.5881C68.2811 90.4524 60.6905 85.7481 55.7372 78.9832L54.0636 84.9554C55.3823 86.4099 56.8076 87.7612 58.3339 88.9805L58.8268 89.3734L57.4258 94.27C59.3487 95.6086 61.3864 96.7838 63.4983 97.7782L67.0216 94.139L67.612 94.3731C70.2214 95.4127 72.9376 96.1452 75.6816 96.552L76.3078 96.6459L77.5326 101.536C78.6958 101.634 79.8718 101.685 81.0374 101.685C82.2052 101.685 83.3812 101.634 84.5433 101.536L85.7645 96.6609L86.3931 96.5694C89.1603 96.1672 91.8904 95.4429 94.5057 94.4102L95.0936 94.1761L98.5787 97.7782C100.692 96.7838 102.73 95.6074 104.65 94.27L103.275 89.4614L103.77 89.0709C105.97 87.3243 107.969 85.3262 109.71 83.1323L110.103 82.6374L114.92 84.012C116.257 82.0974 117.433 80.0634 118.429 77.9483L114.824 74.4609L115.054 73.8757C116.082 71.2668 116.806 68.5432 117.207 65.7837L117.291 65.2008L122.224 63.6049C122.289 62.8458 122.323 62.1527 122.334 61.3322L112.343 63.6814C110.82 78.8082 98.5729 90.7108 83.3209 91.7782ZM116.56 51.9156C116.157 50.2582 115.652 48.6195 115.017 47.0247L114.783 46.436L118.429 42.9127C117.579 41.1059 116.586 39.3628 115.485 37.6985L110.251 48.8072C110.655 49.8178 111.008 50.8551 111.308 51.9156H116.56ZM49.8479 63.6501C50.0126 65.2842 50.3049 66.879 50.7108 68.4262L46.4939 83.0199C45.4281 81.3973 44.4701 79.7006 43.6455 77.9483L47.3463 74.3705L47.1155 73.7841C46.1019 71.1996 45.3863 68.5178 44.9885 65.8127L44.9027 65.2321L39.8485 63.5875C39.7789 62.76 39.7499 62.053 39.7406 61.2707L49.8479 63.6501Z" fill="#A47C25"/>
<path d="M97.0166 59.0314L99.9485 52.8066L95.3605 52.8344L95.9276 61.5429C96.2627 60.7258 96.6316 59.8624 97.0166 59.0314ZM70.7179 52.8506L65.0223 52.817L67.7466 59.7766L70.7179 52.8506ZM72.1513 67.967L75.5019 68.7412L75.0588 61.9856L72.1513 67.967ZM61.7402 65.5599L60.4261 62.2556L59.6364 65.0719L61.7402 65.5599ZM82.704 61.3482L83.2317 69.5571L88.8751 68.2533L88.0366 56.01L82.704 61.3482Z" fill="white"/>
<path d="M92.8734 29.192L87.2892 31.2318L91.1222 87.1856L123.767 17.9048L116.132 20.6933L97.8743 59.4376C96.4768 62.4509 95.2683 65.9707 95.2683 65.9707L92.8734 29.192ZM60.2702 59.3066L47.7819 103.865L40.7155 106.445L59.5175 41.3623L67.7089 62.277L79.9722 33.6841L83.644 90.6405L78.0285 92.8135L75.7739 58.3632L67.0397 76.3156L60.2702 59.3066" fill="white"/>
<path d="M103.67 6.00968L101.425 9.10176L100.751 8.85143C96.4169 7.23933 91.895 6.17194 87.3127 5.67822L86.5659 5.59594L86.0301 1.23829C86.0301 1.23829 82.7468 0.949707 81.137 0.949707C79.5238 0.949707 76.237 1.23829 76.237 1.23829L75.7047 5.59594L74.9567 5.67822C70.3733 6.17194 65.8514 7.23933 61.5185 8.85143L60.8435 9.10176L58.5994 6.00968C56.0723 7.04115 53.6229 8.23487 51.2929 9.56766L56.491 23.8135C63.7812 18.9169 72.2428 16.3359 81.0442 16.3359C89.9083 16.3359 98.4221 18.9505 105.744 23.9097L110.976 9.56766C108.64 8.23139 106.188 7.03767 103.67 6.00968Z" fill="#254AA5"/>
<path d="M81.131 9.61212e-07C79.4888 9.61212e-07 77.8361 0.0938773 76.2171 0.283946L75.3821 0.378979L74.8497 4.73201C70.0994 5.24427 65.5624 6.33137 61.1831 7.96086L58.9274 4.85254C55.8772 6.05554 52.9477 7.47874 50.1271 9.14299L56.0164 25.2849C63.0817 20.2504 71.7172 17.2765 81.0382 17.2765C90.4242 17.2765 99.1108 20.2898 106.206 25.3857L112.131 9.14299C109.306 7.47874 106.384 6.05554 103.331 4.85254L101.075 7.96086C96.695 6.33137 92.1592 5.24427 87.4088 4.73201L86.8741 0.378979L86.0426 0.283946C84.4224 0.0938773 82.7674 9.61212e-07 81.131 9.61212e-07ZM81.131 0.945708C82.7408 0.945708 86.024 1.23429 86.024 1.23429L86.5599 5.59196L87.3067 5.67308C91.8889 6.16796 96.4109 7.23535 100.745 8.84746L101.419 9.0978L103.665 6.0057C106.182 7.0337 108.634 8.22742 110.97 9.56369L105.738 23.9046C98.4149 18.9454 89.9023 16.332 81.0382 16.332C72.2368 16.332 63.7752 18.913 56.4861 23.8096L51.2881 9.56369C53.6157 8.2309 56.0663 7.03717 58.5945 6.0057L60.8387 9.0978L61.5125 8.84746C65.8454 7.23535 70.3673 6.16796 74.9518 5.67308L75.6999 5.59196L76.231 1.23429C76.231 1.23429 79.5178 0.945708 81.131 0.945708" fill="#A47C25"/>
<path d="M99.3205 15.3045L101.061 16.0323L101.499 12.5601L99.3205 15.3045ZM102.469 19.9578L100.693 19.2172L100.889 17.597L98.3509 16.5365L97.3327 17.816L95.5559 17.0743L100.977 10.6142L103.253 11.5634L102.469 19.9578ZM94.874 10.2433L93.2758 16.4809L91.484 16.0219L93.0822 9.78553L90.9412 9.2385L91.3402 7.68201L97.4127 9.23386L97.0126 10.7904L94.874 10.2433ZM85.6214 15.1794C84.6762 15.0832 83.702 14.776 83.0328 14.3924L83.4851 13.0283C84.21 13.3354 84.9569 13.5684 85.8035 13.6565C86.7475 13.7538 86.9505 13.5916 87.0212 12.9194C87.0955 12.1985 87.0676 12.1093 85.7606 11.6839C83.8261 11.0604 83.571 10.6443 83.7507 8.91515C83.9166 7.31693 84.5591 6.73861 86.8067 6.96924C87.5176 7.04226 88.3689 7.20335 89.2596 7.48846L88.9175 8.98468C88.0001 8.73203 87.4074 8.59875 86.6698 8.52226C85.8464 8.43881 85.6493 8.56282 85.5878 9.15158C85.5078 9.92113 85.5426 9.93735 86.8009 10.3696C88.9581 11.1149 89.0242 11.546 88.8618 13.121C88.6971 14.7065 88.0882 15.4332 85.6214 15.1794ZM81.1993 6.69805L81.5077 12.3932C81.5739 13.6124 80.8652 14.8966 78.5492 15.0217C76.2332 15.1457 75.3889 13.9451 75.3251 12.7258L75.0166 7.02951L76.8641 6.92984L77.1633 12.4569C77.1981 13.1094 77.5379 13.4664 78.4622 13.4166C79.3865 13.3679 79.6869 12.975 79.651 12.3237L79.3518 6.79656L81.1993 6.69805ZM70.7289 16.1227C68.7817 16.5759 67.5686 15.8272 67.2381 14.4028L66.4784 11.1288C66.1432 9.68122 66.9075 8.49908 68.8536 8.04708C69.7803 7.83151 70.7579 7.72953 71.4735 7.69939L71.6138 9.29297C70.8913 9.3486 69.8034 9.51433 69.2259 9.64877C68.3236 9.85738 68.2018 10.3696 68.3445 10.9816L68.9707 13.6785C69.1122 14.2904 69.4578 14.7436 70.3601 14.5338C70.7208 14.4504 70.9586 14.3831 71.4132 14.2151L70.8554 11.8126L72.5521 11.4197L73.4068 15.1052C72.5857 15.556 71.6556 15.9083 70.7289 16.1227ZM61.118 15.9802L62.8565 15.2431L60.6727 12.5068L61.118 15.9802ZM66.6535 16.9804L64.8814 17.7326L63.8574 16.46L61.3233 17.5344L61.5297 19.1534L59.7576 19.9056L58.9133 11.5205L61.1841 10.5574L66.6535 16.9804Z" fill="white"/>
<path d="M5.13629 52.4965L52.1774 63.3711L55.2368 52.7828L5.13629 52.4965Z" fill="#289548"/>
<path d="M157.3 52.4961L102.575 65.1162L108.388 52.7789L157.273 52.4961H157.3Z" fill="#C20E1A"/>
</svg>
